**ABCDEFGHIJKLMNOPQRSTUVWXYZabcdefghijklmnopqrstuvwxyz**************************
**PARASOLID !"#$%&'()*+,-./:;<=>?@[\]^_`{|}~0123456789**************************
**PART1;
MC=AMD64;
MC_MODEL=Intel64 Family 6 Model 60 Stepping 3, GenuineIntel;
MC_ID=unknown;
OS=Windows_NT;
OS_RELEASE=unknown;
FRU=Parasolid Version 28.0, build 224,  7-29-2016;
APPL=SOLIDWORKS 2016-2016286;
SITE=;
USER=unknown;
FORMAT=text;
GUISE=transmit;
KEY=LZ-CLSm-B.Weight-R1;
FILE=LZ-CLSm-B.Weight-R1.x_t;
DATE=Thu Jan 24 17:06:47 2019;
**PART2;
SCH=SCH_2800224_28002;
USFLD_SIZE=0;
**PART3;
**END_OF_HEADER*****************************************************************
T51 : TRANSMIT FILE created by modeller version 280022423 SCH_2800224_28002_1300
6200 0 12 30 CCCCCCCCCCCCCDI5 owner1040 0 CCCCCCCCCA13 boundary_mesh1006 0 A16 i
ndex_map_offset0 0 1 dA9 index_map82 0 A17 node_id_index_map82 0 A20 schema_embe
dding_map82 0 A5 child12 0 A14 lowest_node_id0 0 1 dZ1 853 0 2 0 0 0 0 1e3 1e-8
 0 3 0 1 0 1 1 4 5 6 7 8 9 10 0 0 0 0 0 0 0 70 11 CI9 list_type0 0 1 uI10 notran
smit0 0 1 lCCCDCCDI12 finger_index0 0 1 dI12 finger_block1012 0 CZ2 0 4 T1 0 0 2
 20 1 11 11 13 255 4 94 0 1 0 12 0 0 13 0 50 255 5 694 0 14 15 0 0 -0 .005 .0397
 0 -.707106781186548 -.707106781186548 1 0 0 30 255 6 702 0 16 17 0 0 +.1318 .00
5 .0397 0 -.707106781186548 .707106781186548 29 255 7 612 0 10 18 0 .1318 .0049
 .0398 19 8 CCCCCCCA5 owner12 0 Z8 28 0 1 13 0 19 V0 16 255 9 618 0 ?20 0 21 22
 0 0 1 18 255 10 610 0 23 0 24 7 ?1 17 255 23 0 25 26 27 10 28 21 0 29 +18 24 60
2 0 20 10 30 18 ?1 17 20 0 31 32 29 24 33 9 0 34 +18 30 594 0 35 24 36 37 ?1 29
 18 604 0 24 37 7 -.1318 .0049 .0398 29 37 596 0 30 38 18 .1348 .0049 .0368 29 3
8 588 0 36 39 37 -.1348 .0049 .0368 18 36 586 0 40 30 41 38 ?1 29 39 580 0 41 42
 38 .1348 .0049 -.0368 18 41 578 0 43 36 44 39 ?1 29 42 572 0 44 45 39 -.1348 .0
049 -.0368 18 44 570 0 46 41 47 42 ?1 29 45 564 0 47 48 42 .1318 .0049 -.0398 18
 47 562 0 49 44 50 45 ?1 29 48 561 0 50 51 45 -.1318 .0049 -.0398 18 50 559 0 52
 47 53 48 ?1 29 51 552 0 53 54 48 -.1318 .005 -.0397 18 53 550 0 55 50 56 51 ?1
 29 54 548 0 56 57 51 .1318 .005 -.0397 18 56 546 0 58 53 59 54 ?1 29 57 544 0 5
9 60 54 -.1347 .005 -.0368 18 59 542 0 61 56 62 57 ?1 29 60 540 0 62 63 57 .1347
 .005 -.0368 18 62 538 0 64 59 65 60 ?1 29 63 536 0 65 66 60 -.1347 .005 .0368 1
8 65 534 0 67 62 68 63 ?1 29 66 532 0 68 69 63 .1347 .005 .0368 18 68 530 0 70 6
5 71 66 ?1 29 69 528 0 71 72 66 .1318 .005 .0397 18 71 526 0 73 68 74 69 ?1 29 7
2 525 0 74 75 69 -.1318 .005 .0397 18 74 523 0 76 71 77 72 ?1 29 75 174 0 77 78
 72 -.1318 0 -.0398 18 77 172 0 79 74 80 75 ?1 29 78 171 0 80 81 75 .1318 0 -.03
98 18 80 169 0 82 77 83 78 ?1 29 81 168 0 83 84 78 .1318 0 .0398 18 83 166 0 85
 80 86 81 ?1 29 84 165 0 86 87 81 -.1318 0 .0398 18 86 163 0 32 83 88 84 ?1 29 8
7 162 0 88 89 84 .1348 0 -.0368 18 88 160 0 90 86 91 87 ?1 29 89 159 0 91 92 87
 .1348 0 .0368 18 91 157 0 93 88 94 89 ?1 29 92 140 0 94 95 89 -.1348 0 .0368 18
 94 138 0 96 91 97 92 ?1 29 95 137 0 97 0 92 -.1348 0 -.0368 18 97 135 0 98 94 0
 95 ?1 17 98 0 99 100 46 97 101 102 0 103 +15 255 99 80 0 104 105 0 17 100 0 99
 104 98 94 106 107 0 108 +17 46 0 99 98 104 44 109 110 0 101 +17 101 0 111 52 10
3 44 98 102 0 112 -16 102 571 0 ?98 113 114 115 0 0 1 17 103 0 111 101 116 97 79
 117 0 106 -15 111 279 0 101 118 0 17 116 0 111 103 52 77 119 120 0 0 -17 79 0 1
21 122 106 77 103 117 0 123 +16 117 190 0 ?79 124 125 126 0 0 1 17 106 0 121 79
 96 97 100 107 0 0 -15 121 44 0 106 127 0 17 96 0 121 106 128 94 129 113 0 100 +
16 107 136 0 ?100 130 131 132 0 0 1 16 130 164 0 ?133 114 107 134 0 0 1 16 131 1
70 0 ?123 107 135 136 0 0 1 30 132 67 0 107 136 134 0 +-.1348 0 .0398 0 0 1 30 1
36 68 0 131 137 132 0 +-.1348 0 -.0398 -1 0 0 30 134 66 0 130 132 138 0 +-.1348
 0 .0398 1 0 0 30 138 149 0 114 134 115 0 --.1348 .005 .0368 0 -1 0 16 114 147 0
 ?104 102 130 138 0 0 1 30 115 154 0 102 138 139 0 +-.1348 .005 -.0368 0 -1 0 31
 255 139 177 0 113 115 140 0 +-.1318 0 .0368 0 -1 0 0 0 -1 .003 16 113 175 0 ?96
 141 102 139 0 0 1 31 140 182 0 141 139 142 0 +.1318 0 .0368 0 -1 0 0 0 -1 .003
 16 141 180 0 ?85 125 113 140 0 0 1 31 142 187 0 125 140 126 0 +.1318 0 -.0368 0
 -1 0 0 0 -1 .003 16 125 185 0 ?90 117 141 142 0 0 1 31 126 192 0 117 142 143 0
 +-.1318 0 -.0368 0 -1 0 0 0 -1 .003 30 143 203 0 124 126 144 0 +.1318 .005 -.03
98 0 -1 0 16 124 563 0 ?82 120 117 143 0 0 1 30 144 208 0 120 143 145 0 --.1318
 .005 -.0398 0 -1 0 16 120 206 0 ?119 146 124 144 0 0 1 30 145 245 0 146 144 147
 0 +.1348 .005 .0368 0 -1 0 16 146 595 0 ?93 148 120 145 0 0 1 30 147 250 0 148
 145 149 0 -.1348 .005 -.0368 0 -1 0 16 148 248 0 ?150 151 146 147 0 0 1 30 149
 255 0 151 147 152 0 +-.1318 .005 .0398 0 -1 0 16 151 603 0 ?32 153 148 149 0 0
 1 30 152 260 0 153 149 154 0 -.1318 .005 .0398 0 -1 0 16 153 258 0 ?29 155 151
 152 0 0 1 31 154 396 0 156 152 157 0 +.1 0 0 0 -1 0 0 0 -1 .0017 16 156 404 0 ?
158 135 159 154 0 0 1 31 157 446 0 160 154 161 0 +-.1 0 0 0 -1 0 0 0 -1 .0017 16
 160 463 0 ?162 163 164 157 0 0 1 30 161 529 0 155 157 165 0 +0 .005 .0397 1 0 0
 16 155 527 0 ?73 166 153 161 0 0 1 31 165 533 0 166 161 167 0 -.1318 .005 .0368
 0 -1 0 0 0 -1 .0029 16 166 531 0 ?70 168 155 165 0 0 1 31 167 537 0 168 165 169
 0 --.1318 .005 .0368 0 -1 0 0 0 -1 .0029 16 168 535 0 ?76 170 166 167 0 0 1 30
 169 541 0 170 167 171 0 +.1347 .005 0 0 0 -1 16 170 539 0 ?64 172 168 169 0 0 1
 30 171 545 0 172 169 173 0 +-.1347 .005 0 0 0 1 16 172 543 0 ?67 174 170 171 0
 0 1 31 173 549 0 174 171 175 0 -.1318 .005 -.0368 0 -1 0 0 0 -1 .0029 16 174 54
7 0 ?58 176 172 173 0 0 1 31 175 553 0 176 173 177 0 --.1318 .005 -.0368 0 -1 0
 0 0 -1 .0029 16 176 551 0 ?61 178 174 175 0 0 1 30 177 556 0 178 175 179 0 +0 .
005 -.0397 -1 0 0 16 178 554 0 ?180 181 176 177 0 0 1 30 179 567 0 181 177 182 0
 +-.1348 .0049 -.0398 1 0 0 16 181 565 0 ?183 184 178 179 0 0 1 31 182 575 0 184
 179 185 0 +-.1318 .0049 -.0368 0 -1 0 0 0 -1 .003 16 184 573 0 ?52 186 181 182
 0 0 1 31 185 583 0 186 182 187 0 +.1318 .0049 -.0368 0 -1 0 0 0 -1 .003 16 186
 581 0 ?43 110 184 185 0 0 1 30 187 591 0 110 185 188 0 +-.1348 .0049 .0398 0 0
 -1 16 110 589 0 ?46 189 186 187 0 0 1 30 188 599 0 189 187 190 0 +.1348 .0049 .
0398 0 0 1 16 189 597 0 ?35 191 110 188 0 0 1 31 190 607 0 191 188 192 0 +-.1318
 .0049 .0368 0 -1 0 0 0 -1 .003 16 191 605 0 ?40 21 189 190 0 0 1 31 192 615 0 2
1 190 22 0 +.1318 .0049 .0368 0 -1 0 0 0 -1 .003 16 21 613 0 ?23 9 191 192 0 0 1
 30 22 620 0 9 192 193 0 +-.1348 .0049 .0398 -1 0 0 30 193 709 0 194 22 195 0 +-
.1318 .0049 -.0398 0 .707106781186548 .707106781186548 16 194 677 0 ?55 196 0 19
3 0 0 1 30 195 708 0 196 193 197 0 +.1318 .005 -.0397 0 -.707106781186548 -.7071
06781186548 16 196 675 0 ?49 198 194 195 0 0 1 30 197 707 0 198 195 199 0 +-.134
8 .0049 -.0368 .707106781186548 .707106781186548 0 16 198 672 0 ?200 201 196 197
 0 0 1 30 199 706 0 201 197 202 0 +.1347 .005 -.0368 .707106781186548 -.70710678
1186548 0 16 201 669 0 ?203 204 198 199 0 0 1 30 202 705 0 204 199 205 0 +-.1348
 .0049 .0368 .707106781186548 .707106781186548 0 16 204 666 0 ?206 207 201 202 0
 0 1 30 205 704 0 207 202 17 0 +.1347 .005 .0368 .707106781186548 -.707106781186
548 0 16 207 663 0 ?208 209 204 205 0 0 1 30 17 703 0 209 205 6 0 +-.1318 .0049
 .0398 0 .707106781186548 -.707106781186548 16 209 660 0 ?210 16 207 17 0 0 1 17
 210 0 211 212 213 74 214 209 0 0 +16 16 657 0 ?215 216 209 6 0 0 1 17 215 0 217
 28 218 10 219 16 0 0 +16 216 464 0 ?220 164 16 221 0 0 1 17 220 0 222 220 220 0
 223 216 0 0 +16 164 465 0 ?224 160 216 225 0 0 1 31 221 499 0 216 0 225 0 +-.1
 .005 0 0 1 0 0 0 1 .0034 31 225 498 0 164 221 226 0 +-.1 .00335832908282797 0 0
 1 0 0 0 1 .0017 31 226 440 0 163 225 227 0 +.1 .005 0 0 1 0 0 0 1 .0034 16 163
 405 0 ?228 159 160 226 0 0 1 31 227 439 0 159 226 137 0 +.1 .00335832908282797
 0 0 1 0 0 0 1 .0017 16 159 406 0 ?229 156 163 227 0 0 1 30 137 69 0 135 227 136
 0 +.1348 0 .0398 0 0 -1 16 135 158 0 ?230 131 156 137 0 0 1 17 230 0 231 150 93
 88 232 135 0 233 +15 231 84 0 150 12 0 17 150 0 231 35 230 41 233 148 0 234 +17
 93 0 231 230 35 91 27 146 0 235 +17 232 0 121 85 90 91 230 135 0 0 -17 233 0 23
6 237 43 88 150 148 0 0 -15 236 300 0 238 239 0 17 237 0 236 238 233 80 90 125 0
 122 -17 43 0 236 233 238 41 240 186 0 150 +17 238 0 236 43 237 47 82 124 0 0 -1
7 240 0 241 242 203 47 43 186 0 183 -15 241 647 0 203 243 0 17 242 0 241 244 240
 56 49 196 0 245 -17 203 0 241 240 244 41 246 201 0 0 +17 183 0 247 82 119 47 24
8 181 0 238 +15 247 82 0 119 249 0 17 82 0 247 123 183 80 238 124 0 237 +17 119
 0 247 183 123 50 116 120 0 248 +17 248 0 250 55 49 50 183 181 0 251 -15 250 651
 0 49 252 0 17 55 0 250 245 248 53 251 194 0 253 +17 49 0 250 248 245 47 242 196
 0 240 +17 251 0 254 255 253 50 55 194 0 0 -15 254 649 0 200 256 0 17 255 0 254
 200 251 44 52 184 0 0 -17 253 0 254 251 200 53 61 176 0 180 -17 200 0 254 253 2
55 59 112 198 0 0 +17 61 0 257 67 180 59 253 176 0 258 +17 180 0 257 61 58 53 24
5 178 0 0 +15 257 524 0 58 259 260 17 58 0 257 180 64 56 244 174 0 242 +17 245 0
 250 49 55 56 180 178 0 0 -17 64 0 257 58 70 62 261 170 0 246 +17 244 0 241 203
 242 62 58 174 0 0 -17 70 0 257 64 73 68 218 166 0 262 +17 261 0 263 208 246 68
 64 170 0 0 -17 246 0 263 261 234 62 203 201 0 244 -15 263 643 0 208 264 0 17 23
4 0 263 246 208 41 35 189 0 203 -17 208 0 263 234 261 30 262 207 0 0 +17 35 0 23
1 93 150 30 234 189 0 27 +17 27 0 25 23 235 30 93 146 0 28 -15 25 321 0 27 265 0
 17 235 0 25 27 26 91 85 141 0 232 -17 28 0 217 262 215 30 23 21 0 208 -15 217 6
39 0 215 266 0 17 262 0 217 218 28 68 208 207 0 261 -17 218 0 217 215 262 71 70
 166 0 0 -14 255 266 638 267 ?268 14 217 4 15 +0 0 268 14 19 81 255 1 267 832 26
9 266 270 0 0 271 272 14 268 640 271 ?264 266 211 4 273 +0 0 264 266 19 14 14 63
6 274 ?266 275 276 4 5 +0 0 266 275 19 52 255 15 695 0 266 273 5 0 +.1318 .005 .
0368 0 -1 0 .0029 .707106781186538 .707106781186557 0 0 -1 13 19 29 0 0 0 0 0 0
 8 12 14 12 85 277 ?249 0 231 4 278 -0 0 249 0 19 81 1 277 835 269 12 279 0 274
 280 281 14 249 83 280 ?105 12 247 4 282 -0 0 105 12 19 50 278 89 0 12 282 283 0
 +.1348 .005 .0398 -1 0 0 0 0 1 50 282 88 0 249 284 278 0 +-.1348 .005 -.0398 0
 0 1 1 0 0 51 255 283 290 0 118 278 285 0 +-.1318 .005 -.0368 0 -1 0 .003 0 0 -1
 14 118 278 286 ?239 127 111 4 283 +0 0 239 127 19 51 285 311 0 239 283 287 0 +.
1318 .005 -.0368 0 -1 0 .003 0 0 -1 14 239 299 288 ?265 118 236 4 285 +0 0 265 1
18 19 51 287 332 0 265 285 289 0 +.1318 .005 .0368 0 -1 0 .003 0 0 -1 14 265 320
 290 ?291 239 25 4 287 +0 0 291 239 19 51 289 353 0 291 287 292 0 +-.1318 .005 .
0368 0 -1 0 .003 0 0 -1 14 291 341 293 ?294 265 295 4 289 +0 0 294 265 19 50 292
 701 0 252 289 296 0 -0 .005 -.0397 0 -.707106781186548 .707106781186548 -1 0 0
 14 252 650 297 ?0 256 250 4 292 +0 0 0 256 19 52 296 700 0 256 292 298 0 +-.131
8 .005 -.0368 0 -1 0 .0029 .707106781186538 .707106781186557 0 0 -1 14 256 648 2
99 ?252 243 254 4 296 +0 0 252 243 19 52 298 699 0 243 296 300 0 +.1318 .005 -.0
368 0 -1 0 .0029 .707106781186538 .707106781186557 0 0 -1 14 243 646 301 ?256 30
2 241 4 298 +0 0 256 302 19 50 300 698 0 302 298 303 0 --.1347 .005 0 .707106781
186548 -.707106781186548 0 0 0 1 14 302 644 304 ?243 264 305 4 300 +0 0 243 264
 19 50 303 697 0 264 300 273 0 -.1347 .005 0 -.707106781186548 -.707106781186548
 0 0 0 -1 14 264 642 306 ?302 268 263 4 303 +0 0 302 268 19 52 273 696 0 268 303
 15 0 +-.1318 .005 .0368 0 -1 0 .0029 .707106781186538 .707106781186557 0 0 -1 8
1 1 306 845 269 264 307 0 304 308 309 80 255 1 269 310 311 9000 1 1 1 1 1 1 1 1
 0 FFFFTFTFFFFFFF1 81 1 307 781 312 264 0 306 313 314 315 81 1 304 844 269 302 3
14 0 301 306 316 81 1 308 846 269 275 317 0 306 318 319 82 255 1 309 -1209007964
 14 275 486 308 ?14 320 321 4 322 -0 0 14 320 19 81 1 317 777 312 275 0 308 323
 324 325 81 1 318 847 269 320 323 0 308 326 327 82 1 319 -1246625629 14 320 481
 318 ?275 328 329 4 330 -0 0 275 328 19 81 1 323 776 312 320 0 318 331 317 332 8
1 1 326 848 269 328 331 0 318 333 334 82 1 327 -1246035805 14 328 427 326 ?320 2
94 335 4 336 -0 0 320 294 19 81 1 331 775 312 328 0 326 337 323 338 81 1 333 849
 269 294 337 0 326 339 340 82 1 334 -1227685725 14 294 422 333 ?328 291 341 4 34
2 -0 0 328 291 19 81 1 337 774 312 294 0 333 343 331 344 81 1 339 850 269 127 34
5 0 333 346 347 82 1 340 -1227095901 14 127 43 339 ?118 259 348 4 349 +0 0 118 2
59 19 81 1 345 769 312 127 0 339 350 351 352 81 1 346 851 269 259 350 0 339 353
 354 82 1 347 -1294335837 14 259 1 346 ?127 355 257 4 356 -0 0 127 355 19 81 1 3
50 768 312 259 0 346 357 345 358 81 1 353 852 269 355 357 0 346 359 360 82 1 354
 -1299971932 14 355 79 353 ?259 105 31 4 361 -0 0 259 105 19 81 1 357 767 312 35
5 0 353 362 350 363 81 1 359 853 269 105 362 0 353 0 364 82 1 360 -1293418332 14
 105 81 359 ?355 249 99 4 284 -0 0 355 249 19 81 1 362 766 312 105 0 359 365 357
 366 82 1 364 -1293156188 80 1 312 0 367 8001 0 0 0 0 3 5 0 0 0 FFFFTFTFFFFFFF2
 81 1 365 765 312 249 0 280 279 362 368 83 255 3 366 .647058823529412 .517647058
823529 0 81 1 280 836 269 249 365 0 277 286 369 81 1 279 764 312 12 0 277 0 365
 370 83 3 368 .647058823529412 .517647058823529 0 83 3 370 .647058823529412 .517
647058823529 0 81 1 286 837 269 118 351 0 280 288 371 82 1 369 -1292894044 81 1
 351 770 312 118 0 286 345 372 373 81 1 288 838 269 239 372 0 286 290 374 82 1 3
71 -1285816156 81 1 372 771 312 239 0 288 351 375 376 81 1 290 839 269 265 375 0
 288 293 377 82 1 374 -1283850076 81 1 375 772 312 265 0 290 372 343 378 81 1 29
3 840 269 291 343 0 290 297 379 82 1 377 -1281883996 81 1 343 773 312 291 0 293
 375 337 380 81 1 297 841 269 252 381 0 293 299 382 82 1 379 -1279917916 81 1 38
1 785 312 252 0 297 383 0 384 81 1 299 842 269 256 383 0 297 301 385 82 1 382 -1
213988700 81 1 383 784 312 256 0 299 386 381 387 81 1 301 843 269 243 386 0 299
 304 388 82 1 385 -1212415836 81 1 386 783 312 243 0 301 314 383 389 82 1 388 -1
211236188 81 1 314 782 312 302 0 304 307 386 390 83 3 389 .647058823529412 .5176
47058823529 0 83 3 390 .647058823529412 .517647058823529 0 83 3 387 .64705882352
9412 .517647058823529 0 83 3 384 .647058823529412 .517647058823529 0 83 3 380 .6
47058823529412 .517647058823529 0 83 3 378 .647058823529412 .517647058823529 0 8
3 3 376 .647058823529412 .517647058823529 0 83 3 373 .647058823529412 .517647058
823529 0 79 255 15 367 SDL/TYSA_COLOUR50 284 87 0 105 361 282 0 +-.1348 .005 .03
98 1 0 0 0 0 -1 50 361 86 0 355 349 284 0 +-.1348 .005 .0398 0 0 -1 -1 0 0 50 34
9 65 0 127 356 361 0 +0 0 0 0 -1 0 0 0 -1 50 356 2 0 259 342 349 0 +0 .005 0 0 -
1 0 0 0 -1 51 342 436 0 294 336 356 0 +.1 .005 0 0 1 0 .0017 0 0 1 52 336 437 0
 328 330 342 0 +.1 .005 0 0 1 0 .0034 .719339800338652 .694658370458996 0 0 1 51
 330 495 0 320 322 336 0 +-.1 .005 0 0 1 0 .0017 0 0 1 52 322 496 0 275 0 330 0
 +-.1 .005 0 0 1 0 .0034 .719339800338652 .694658370458996 0 0 1 83 3 363 .64705
8823529412 .517647058823529 0 15 31 78 0 29 355 0 17 29 0 31 20 133 10 26 153 0
 33 +17 133 0 31 29 32 83 128 130 0 26 +17 26 0 25 235 23 83 29 153 0 0 -17 33 0
 276 219 214 10 20 9 0 215 -15 276 637 0 214 14 0 17 219 0 276 391 33 71 215 16
 0 218 -17 214 0 276 33 391 24 210 209 0 213 -17 391 0 276 214 219 74 73 155 0 2
10 -17 213 0 211 210 392 24 40 191 0 0 -15 211 641 0 210 268 0 17 392 0 211 213
 212 36 206 204 0 109 -17 40 0 295 108 34 36 213 191 0 104 +15 295 342 0 34 291
 0 17 108 0 295 129 40 94 104 114 0 0 -17 34 0 295 40 129 24 32 151 0 214 -17 10
4 0 99 46 100 36 108 114 0 392 +17 129 0 295 34 108 86 96 113 0 128 -17 32 0 31
 133 20 86 34 151 0 129 +17 128 0 121 96 85 86 133 130 0 0 -17 85 0 121 128 232
 83 235 141 0 133 +17 212 0 211 392 210 65 76 168 0 206 -17 206 0 305 258 109 65
 392 204 0 0 +17 109 0 305 206 112 36 46 110 0 0 -15 305 645 0 206 302 0 17 112
 0 305 109 258 44 200 198 0 255 -17 258 0 305 112 206 59 67 172 0 200 -17 67 0 2
57 76 61 65 258 172 0 212 +17 76 0 257 73 67 74 212 168 0 391 +17 73 0 257 70 76
 71 391 155 0 219 +83 3 358 .647058823529412 .517647058823529 0 83 3 352 .647058
823529412 .517647058823529 0 15 348 445 0 393 127 394 17 393 0 348 393 393 0 162
 160 0 0 -15 394 395 0 395 127 121 17 395 0 394 395 395 0 158 156 0 0 -17 158 0
 341 158 158 0 395 156 0 0 +15 341 425 0 158 294 396 15 396 426 0 229 294 0 17 2
29 0 396 229 229 0 397 159 0 0 +17 397 0 335 397 397 0 229 159 0 0 -15 335 430 0
 397 328 398 15 398 431 0 228 328 0 17 228 0 398 228 228 0 399 163 0 0 +17 399 0
 400 399 399 0 228 163 0 0 -15 400 385 0 399 259 0 17 162 0 329 162 162 0 393 16
0 0 0 +15 329 484 0 162 320 401 15 401 485 0 224 320 0 17 224 0 401 224 224 0 40
2 164 0 0 +17 402 0 321 402 402 0 224 164 0 0 -15 321 489 0 402 275 222 15 222 4
90 0 220 275 0 83 3 344 .647058823529412 .517647058823529 0 83 3 338 .6470588235
29412 .517647058823529 0 83 3 332 .647058823529412 .517647058823529 0 81 1 324 7
78 312 14 0 274 317 270 403 83 3 325 .647058823529412 .517647058823529 0 81 1 27
4 834 269 14 324 0 271 277 404 81 1 270 779 312 266 0 267 324 313 405 83 3 403 .
647058823529412 .517647058823529 0 81 1 313 780 312 268 0 271 270 307 406 83 3 4
05 .647058823529412 .517647058823529 0 81 1 271 833 269 268 313 0 267 274 407 83
 3 406 .647058823529412 .517647058823529 0 82 1 407 -1207893852 82 1 404 -120566
5628 82 1 316 -1210122076 83 3 315 .647058823529412 .517647058823529 0 79 14 311
 SWEntUnchanged82 1 281 -1292631900 82 1 272 -1206779740 15 260 453 0 223 259 40
0 17 223 0 260 223 223 0 220 216 0 0 -17 52 0 111 116 101 50 255 184 0 119 +17 1
23 0 247 119 82 77 122 131 0 116 +17 122 0 121 90 79 80 123 131 0 0 -17 90 0 121
 232 122 88 237 125 0 230 +19 13 95 0 1 0 8 4 S0 74 4 CI16 index_map_offset0 0 1
 dCCZ20 11 2 0 0 359 381 0 0 0 0 0 0 0 0 0 0 0 0 0 0 0 0 0 0 1 0 
